<svg width="129" height="371" viewBox="0 0 129 371" fill="none" xmlns="http://www.w3.org/2000/svg">
<g style="mix-blend-mode:multiply">
<path d="M15 109.5C15 99.2827 23.2827 91 33.5 91C43.7173 91 52 99.2827 52 109.5V282H15V109.5Z" fill="#7BD0AD"/>
</g>
<g style="mix-blend-mode:multiply">
<path d="M38 178C38 168.611 45.6112 161 55 161C64.3888 161 72 168.611 72 178V282H38V178Z" fill="#7BD0AD"/>
</g>
<g style="mix-blend-mode:multiply">
<path d="M62 24.5C62 10.969 72.969 0 86.5 0C100.031 0 111 10.969 111 24.5V282H62V24.5Z" fill="#7BD0AD"/>
</g>
<g style="mix-blend-mode:multiply">
<path fill-rule="evenodd" clip-rule="evenodd" d="M25.6113 93.1199C19.3442 96.0386 15 102.393 15 109.762V282.728H25.6113V93.1199Z" fill="#7BD0AD"/>
</g>
<g style="mix-blend-mode:multiply">
<path fill-rule="evenodd" clip-rule="evenodd" d="M90.1631 282.857H111.387V24.5473C111.387 12.0731 102.163 1.75342 90.1631 0.0377197V282.857Z" fill="#7BD0AD"/>
</g>
<circle cx="96.5" cy="49.5" r="10.5" fill="#7D7ACD"/>
<ellipse cx="25.9689" cy="122.143" rx="5.96895" ry="5.96898" fill="#7D7ACD"/>
<ellipse cx="110.758" cy="69.7582" rx="3.75823" ry="3.75825" fill="#7D7ACD"/>
<path d="M8 282H120V346C120 359.807 108.807 371 95 371H33C19.1929 371 8 359.807 8 346V282Z" fill="#3BAA75"/>
<path d="M0 282H129V303H0V282Z" fill="#7AD0AC"/>
</svg>
