<svg width="129" height="296" viewBox="0 0 129 296" fill="none" xmlns="http://www.w3.org/2000/svg">
<g style="mix-blend-mode:multiply">
<path d="M17 66.5C17 56.2827 25.2827 48 35.5 48C45.7173 48 54 56.2827 54 66.5V208H17V66.5Z" fill="#7BD0AD"/>
</g>
<g style="mix-blend-mode:multiply">
<path d="M64 23C64 10.2975 74.2975 0 87 0C99.7025 0 110 10.2975 110 23V208H64V23Z" fill="#7BD0AD"/>
</g>
<g style="mix-blend-mode:multiply">
<path fill-rule="evenodd" clip-rule="evenodd" d="M27.6113 50.053C21.3442 52.9717 17 59.3263 17 66.6956V208.728H27.6113V50.053Z" fill="#7BD0AD"/>
</g>
<g style="mix-blend-mode:multiply">
<path fill-rule="evenodd" clip-rule="evenodd" d="M90.3936 208.857H110.285V23.0475C110.285 11.3569 101.64 1.68556 90.3936 0.0776367V208.857Z" fill="#7BD0AD"/>
</g>
<path d="M8 207H120V271C120 284.807 108.807 296 95 296H33C19.1929 296 8 284.807 8 271V207Z" fill="#3BAA75"/>
<path d="M0 207H129V228H0V207Z" fill="#7AD0AC"/>
</svg>
