<svg width="137" height="364" viewBox="0 0 137 364" fill="none" xmlns="http://www.w3.org/2000/svg">
<g style="mix-blend-mode:multiply">
<path d="M18.3999 105.058C17.6537 94.8675 25.3094 86.0021 35.4994 85.2559C45.6894 84.5097 54.5549 92.1655 55.3011 102.355L67.8985 274.395L30.9973 277.097L18.3999 105.058Z" fill="#0C4D53"/>
</g>
<g style="mix-blend-mode:multiply">
<path d="M49 172C49 162.611 56.6112 155 66 155C75.3888 155 83 162.611 83 172V276H49V172Z" fill="#0C4D53"/>
</g>
<g style="mix-blend-mode:multiply">
<path d="M82.536 24.4494C83.405 10.9464 95.0558 0.704405 108.559 1.57333C122.062 2.44226 132.304 14.093 131.435 27.5961L114.899 284.565L66 281.418L82.536 24.4494Z" fill="#0C4D53"/>
</g>
<g style="mix-blend-mode:multiply">
<path fill-rule="evenodd" clip-rule="evenodd" d="M27.7871 87.9463C21.7498 91.3149 17.8813 97.9698 18.4195 105.319L31.0509 277.823L41.6339 277.048L27.7871 87.9463Z" fill="#0C4D53"/>
</g>
<g style="mix-blend-mode:multiply">
<path fill-rule="evenodd" clip-rule="evenodd" d="M94.05 284.081L115.231 285.444L131.819 27.6681C132.62 15.2197 124.077 4.32895 112.212 1.84619L94.05 284.081Z" fill="#0C4D53"/>
</g>
<path d="M16 275H128V339C128 352.807 116.807 364 103 364H41C27.1929 364 16 352.807 16 339V275Z" fill="#3BAA75"/>
<path d="M8 275H137V296H8V275Z" fill="#7AD0AC"/>
<circle cx="13.5" cy="350.5" r="13.5" fill="#0C4D53"/>
</svg>
