<svg width="91" height="137" viewBox="0 0 91 137" fill="none" xmlns="http://www.w3.org/2000/svg">
<path d="M24.9141 99.6487H66.5583V123.445C66.5583 128.579 62.3965 132.741 57.2627 132.741H34.2097C29.0758 132.741 24.9141 128.579 24.9141 123.445V99.6487Z" fill="#FB9FB0"/>
<path d="M21.9404 99.6487H69.9056V107.457H21.9404V99.6487Z" fill="#FB7F96"/>
<path d="M46.1084 79.9419H61.5391C62.7712 79.9419 63.77 80.9407 63.77 82.1728V83.6601C63.77 84.4815 63.1041 85.1474 62.2827 85.1474H58.7504" stroke="#0B567C" stroke-width="0.557735"/>
<path d="M46.1084 69.531H37.5565C36.3244 69.531 35.3255 70.5298 35.3255 71.7619V73.2492C35.3255 74.0706 35.9914 74.7365 36.8128 74.7365H38.3901" stroke="#0B567C" stroke-width="0.557735"/>
<line x1="46.3412" y1="47.9651" x2="46.3412" y2="100.02" stroke="#0B567C" stroke-width="0.451881"/>
<line x1="52.1603" y1="36.0724" x2="48.1138" y2="40.9563" stroke="#454545" stroke-width="0.451881"/>
<g style="mix-blend-mode:multiply">
<path fill-rule="evenodd" clip-rule="evenodd" d="M45.0278 46.8132C46.6536 48.2028 49.1249 46.7869 48.7482 44.6816L43.7332 16.6486C43.6706 16.2987 43.534 15.9866 43.3443 15.7221C43.1552 15.279 42.8203 14.8872 42.3405 14.6258L26.2785 5.87542C24.789 5.06394 22.967 6.10782 22.9137 7.80323L22.3396 26.0851C22.3224 26.6312 22.491 27.1182 22.7776 27.5055C22.9098 27.8029 23.11 28.0786 23.3802 28.3096L45.0278 46.8132Z" fill="#0C4D53" fill-opacity="0.75"/>
</g>
<g style="mix-blend-mode:multiply">
<path fill-rule="evenodd" clip-rule="evenodd" d="M43.601 42.8914C41.6621 43.7754 41.9018 46.6031 43.9618 47.1482L71.3917 54.4074C71.7333 54.4978 72.072 54.5058 72.39 54.4461C72.8699 54.4617 73.3647 54.324 73.8028 54.0004L88.4612 43.1723C89.8206 42.1681 89.6439 40.0834 88.1349 39.3224L71.8633 31.1155C71.3778 30.8707 70.8677 30.818 70.398 30.9135C70.0737 30.9078 69.7404 30.9727 69.4181 31.1196L43.601 42.8914Z" fill="#0C4D53" fill-opacity="0.75"/>
</g>
<g style="mix-blend-mode:multiply">
<path fill-rule="evenodd" clip-rule="evenodd" d="M46.774 42.891C48.7129 43.775 48.4732 46.6027 46.4132 47.1479L18.9833 54.407C18.641 54.4976 18.3018 54.5054 17.9831 54.4453C17.5031 54.4611 17.008 54.3234 16.5697 53.9997L1.91127 43.1716C0.55189 42.1674 0.728566 40.0827 2.23755 39.3217L18.5092 31.1148C18.9952 30.8697 19.5059 30.8172 19.9761 30.9132C20.3007 30.9073 20.6343 30.9721 20.9569 31.1193L46.774 42.891Z" fill="#0C4D53" fill-opacity="0.75"/>
</g>
<g style="mix-blend-mode:multiply">
<path fill-rule="evenodd" clip-rule="evenodd" d="M56.5591 118.906C55.3985 118.771 54.7094 120.166 55.5216 121.006L66.3371 132.189C66.4702 132.326 66.6247 132.425 66.7886 132.487C67.0102 132.633 67.2832 132.71 67.5825 132.682L77.5315 131.755C78.4542 131.669 78.9622 130.641 78.4698 129.856L73.1597 121.392C73.0026 121.141 72.7805 120.973 72.5353 120.884C72.3837 120.787 72.2074 120.722 72.0125 120.7L56.5591 118.906Z" fill="#0C4D53" fill-opacity="0.75"/>
</g>
<g style="mix-blend-mode:multiply">
<path fill-rule="evenodd" clip-rule="evenodd" d="M45.2713 43.7619C47.1811 43.5402 48.3152 45.8358 46.9785 47.2179L29.18 65.6208C28.9579 65.8505 28.6996 66.0148 28.4255 66.117C28.0622 66.3528 27.6159 66.4772 27.1268 66.4316L10.7542 64.9071C9.23581 64.7658 8.39971 63.0733 9.2101 61.7815L17.9486 47.8521C18.2096 47.4361 18.5795 47.1573 18.9875 47.012C19.2353 46.8564 19.5228 46.7511 19.8402 46.7142L45.2713 43.7619Z" fill="#0C4D53" fill-opacity="0.75"/>
</g>
</svg>
