<svg width="213" height="440" viewBox="0 0 213 440" fill="none" xmlns="http://www.w3.org/2000/svg">
<line x1="104.85" y1="105" x2="104.85" y2="351" stroke="#0B567C" stroke-width="1.69919"/>
<path opacity="0.53" d="M100.243 124.266L125.064 129.302C132.139 130.741 136.695 137.575 135.256 144.65L124.105 199.448C122.666 206.523 115.831 211.079 108.757 209.64L83.9356 204.604C76.861 203.165 72.3045 196.33 73.7434 189.256L84.8948 134.458C86.3337 127.383 93.2884 122.827 100.243 124.266Z" fill="#0C4D53"/>
<path opacity="0.53" d="M88.2533 115.872L102.163 136.976C106.12 142.971 104.441 151.125 98.4455 155.082L51.8012 185.898C45.8058 189.855 37.6521 188.177 33.6951 182.181L19.7857 161.077C15.8288 155.082 17.5075 146.928 23.5029 142.971L70.1472 112.155C76.1426 108.198 84.2964 109.757 88.2533 115.872Z" fill="#0C4D53"/>
<path opacity="0.53" d="M108.637 86.7343L83.9356 81.5782C76.861 80.1393 72.3045 73.3045 73.7434 66.23L84.8948 11.4319C86.3337 4.35733 93.2884 -0.199185 100.243 1.23971L125.064 6.27586C132.139 7.71476 136.695 14.5495 135.256 21.6241L124.105 76.5421C122.666 83.6166 115.711 88.1732 108.637 86.7343Z" fill="#0C4D53"/>
<path opacity="0.53" d="M110.594 83.0255L105.267 58.3177C103.749 51.2965 108.266 44.3034 115.287 42.7852L169.812 30.901C176.833 29.3828 183.826 33.8994 185.344 40.9206L190.67 65.6284C192.189 72.6496 187.672 79.6426 180.651 81.1608L126.014 93.0016C119.105 94.5632 112.112 90.0467 110.594 83.0255Z" fill="#0C4D53"/>
<path opacity="0.53" d="M114.874 121.747L135.978 107.838C141.973 103.881 150.127 105.56 154.084 111.555L184.9 158.199C188.857 164.195 187.179 172.349 181.183 176.306L160.079 190.215C154.084 194.172 145.93 192.493 141.973 186.498L111.157 139.853C107.2 133.858 108.759 125.704 114.874 121.747Z" fill="#0C4D53"/>
<path d="M103.651 143.732C124.296 143.732 141.033 126.995 141.033 106.349C141.033 85.7038 124.296 68.9673 103.651 68.9673C83.0051 68.9673 66.2686 85.7038 66.2686 106.349C66.2686 126.995 83.0051 143.732 103.651 143.732Z" fill="#0C4D53"/>
<path d="M103.543 128.085C115.993 128.085 126.085 117.993 126.085 105.543C126.085 93.0927 115.993 83 103.543 83C91.0927 83 81 93.0927 81 105.543C81 117.993 91.0927 128.085 103.543 128.085Z" fill="#F0EFFA"/>
<path opacity="0.53" d="M115.736 338.107L112.517 353.971C111.597 358.492 107.229 361.404 102.707 360.485L67.6838 353.357C63.1622 352.438 60.2499 348.069 61.1696 343.548L64.3117 327.684C65.2314 323.162 69.5998 320.25 74.1214 321.17L109.222 328.297C113.743 329.217 116.655 333.662 115.736 338.107Z" fill="#0C4D53"/>
<path d="M48 372H160V415C160 428.807 148.807 440 135 440H73C59.1929 440 48 428.807 48 415V372Z" fill="#FC993D"/>
<path d="M40 351H169V372H40V351Z" fill="#FCB36D"/>
<path d="M104 273H145.5C148.814 273 151.5 275.686 151.5 279V283C151.5 285.209 149.709 287 147.5 287H138" stroke="#0B567C" stroke-width="1.5"/>
<path d="M105 234H84C80.6863 234 78 236.686 78 240V244C78 246.209 79.7909 248 82 248H85.6737" stroke="#0B567C" stroke-width="1.5"/>
<path opacity="0.53" d="M148.287 428.712L147.096 409.115C146.753 403.503 150.976 398.697 156.588 398.354L200.06 395.697C205.672 395.353 210.477 399.576 210.821 405.189L212.036 424.876C212.379 430.488 208.156 435.294 202.544 435.638L159.072 438.294C153.46 438.638 148.63 434.324 148.287 428.712Z" fill="#0C4D53"/>
</svg>
