<svg width="160" height="342" viewBox="0 0 160 342" fill="none" xmlns="http://www.w3.org/2000/svg">
<line x1="80" y1="80.3499" x2="80" y2="298.886" stroke="#454545" stroke-width="1.30081"/>
<path opacity="0.53" d="M76.741 95.3657L95.7427 99.2212C101.159 100.323 104.647 105.555 103.545 110.971L95.0083 152.922C93.9068 158.338 88.6744 161.826 83.2585 160.724L64.2568 156.869C58.8408 155.767 55.3526 150.535 56.4541 145.119L64.9911 103.168C66.0927 97.7524 71.4168 94.2642 76.741 95.3657Z" fill="#FC993D"/>
<path opacity="0.53" d="M67.5626 88.9401L78.2109 105.096C81.2401 109.686 79.955 115.928 75.3652 118.957L39.6567 142.549C35.0669 145.578 28.8248 144.293 25.7955 139.703L15.1472 123.547C12.1179 118.957 13.4031 112.715 17.9929 109.686L53.7014 86.0944C58.2912 83.0652 64.5333 84.2585 67.5626 88.9401Z" fill="#FC993D"/>
<path opacity="0.53" d="M65.635 77.741L61.7795 96.7427C60.678 102.159 55.4456 105.647 50.0297 104.545L8.07902 96.0083C2.66307 94.9068 -0.82517 89.6744 0.276379 84.2585L4.04001 65.2568C5.14155 59.8408 10.3739 56.3526 15.7899 57.4541L57.8323 65.9911C63.2483 67.0927 66.7365 72.4168 65.635 77.741Z" fill="#FC993D"/>
<path opacity="0.53" d="M72.0596 68.5616L55.9036 79.2099C51.3138 82.2392 45.0717 80.954 42.0424 76.3642L18.4509 40.6557C15.4216 36.0659 16.7068 29.8238 21.2966 26.7945L37.4526 16.1462C42.0424 13.117 48.2845 14.4021 51.3138 18.9919L74.9053 54.7004C77.9346 59.2902 76.6494 65.5323 72.0596 68.5616Z" fill="#FC993D"/>
<path opacity="0.53" d="M83.1667 66.6337L64.2568 62.6865C58.8408 61.585 55.3526 56.3526 56.4541 50.9367L64.9911 8.986C66.0927 3.57005 71.4168 0.0818128 76.741 1.18336L95.7427 5.03878C101.159 6.14033 104.647 11.3727 103.545 16.7886L95.0083 58.8311C93.9068 64.247 88.5826 67.7353 83.1667 66.6337Z" fill="#FC993D"/>
<path opacity="0.53" d="M92.44 73.0594L81.7917 56.9033C78.7625 52.3135 80.0476 46.0714 84.6374 43.0422L120.254 19.4507C124.844 16.4214 131.086 17.7065 134.115 22.2963L144.764 38.4524C147.793 43.0422 146.508 49.2843 141.918 52.3135L106.209 75.905C101.711 78.9343 95.4693 77.6492 92.44 73.0594Z" fill="#FC993D"/>
<path opacity="0.53" d="M94.3672 84.1669L98.2226 65.257C99.3242 59.841 104.557 56.3528 109.972 57.4544L151.923 65.9914C157.339 67.0929 160.827 72.3253 159.726 77.7412L155.87 96.7429C154.769 102.159 149.536 105.647 144.12 104.546L102.17 96.0086C96.7539 94.907 93.2657 89.5829 94.3672 84.1669Z" fill="#FC993D"/>
<path opacity="0.53" d="M87.9423 93.4381L104.098 82.7898C108.688 79.7605 114.93 81.0457 117.959 85.6354L141.551 121.344C144.58 125.934 143.295 132.176 138.705 135.205L122.549 145.853C117.959 148.883 111.717 147.598 108.688 143.008L85.0966 107.299C82.0673 102.709 83.2607 96.4673 87.9423 93.4381Z" fill="#FC993D"/>
<path d="M79.3498 110.268C95.155 110.268 107.968 97.4556 107.968 81.6504C107.968 65.8451 95.155 53.0325 79.3498 53.0325C63.5446 53.0325 50.7319 65.8451 50.7319 81.6504C50.7319 97.4556 63.5446 110.268 79.3498 110.268Z" fill="#FC993D"/>
<path d="M79.1282 98.4871C88.6593 98.4871 96.3858 90.7606 96.3858 81.2295C96.3858 71.6984 88.6593 63.9719 79.1282 63.9719C69.5971 63.9719 61.8706 71.6984 61.8706 81.2295C61.8706 90.7606 69.5971 98.4871 79.1282 98.4871Z" fill="#F0EFFA"/>
<path d="M24 253H136V317C136 330.807 124.807 342 111 342H49C35.1929 342 24 330.807 24 317V253Z" fill="#FC993D"/>
<path d="M16 253H145V274H16V253Z" fill="#FCB36D"/>
</svg>
