<svg width="160" height="341" viewBox="0 0 160 341" fill="none" xmlns="http://www.w3.org/2000/svg">
<line x1="79.6504" y1="175" x2="79.6504" y2="298" stroke="#454545" stroke-width="1.30081"/>
<path opacity="0.53" d="M81.7217 155.322L80.3023 174.587C79.9245 180.101 75.1978 184.249 69.6839 183.871L26.9739 180.94C21.46 180.562 17.3002 175.744 17.6901 170.322L19.0063 150.977C19.3841 145.463 24.1109 141.316 29.6248 141.694L72.4258 144.612C77.9397 144.99 82.0995 149.808 81.7217 155.322Z" fill="#FC993D"/>
<path opacity="0.53" d="M87.6529 158.102L75.9699 173.486C72.6499 177.905 66.4268 178.809 62.0082 175.489L27.7849 149.769C23.3663 146.449 22.5015 140.143 25.7821 135.807L37.4216 120.301C40.7415 115.882 46.9647 114.978 51.3833 118.298L85.6895 144.057C90.1081 147.377 90.9729 153.683 87.6529 158.102Z" fill="#FC993D"/>
<path opacity="0.53" d="M91.1141 163.663L72.9371 170.202C67.7462 172.099 62.0346 169.468 60.137 164.277L45.4429 124.068C43.5453 118.877 46.2546 113.117 51.3673 111.268L69.5744 104.602C74.7653 102.705 80.477 105.336 82.3745 110.526L97.1167 150.814C99.0143 156.005 96.305 161.765 91.1141 163.663Z" fill="#FC993D"/>
<path opacity="0.53" d="M90.9873 170.212L72.1812 165.796C66.7943 164.561 63.4371 159.243 64.6728 153.856L74.2491 112.131C75.4848 106.744 80.8939 103.389 86.1891 104.622L105.089 108.948C110.476 110.184 113.833 115.501 112.598 120.888L103.019 162.706C101.783 168.093 96.3742 171.448 90.9873 170.212Z" fill="#FC993D"/>
<path opacity="0.53" d="M87.3145 175.636L73.9473 161.69C70.1025 157.72 70.183 151.432 74.1532 147.587L104.91 117.809C108.88 113.964 115.244 114.096 119.013 118.014L132.508 131.936C136.353 135.907 136.272 142.195 132.302 146.04L101.493 175.894C97.523 179.739 91.1593 179.606 87.3145 175.636Z" fill="#FC993D"/>
<path opacity="0.53" d="M81.2807 178.184L77.6655 159.207C76.6033 153.784 80.0955 148.554 85.5193 147.492L127.533 139.269C132.956 138.207 138.221 141.783 139.248 147.123L142.984 166.148C144.046 171.572 140.554 176.802 135.13 177.864L93.0316 186.122C87.6078 187.184 82.3429 183.607 81.2807 178.184Z" fill="#FC993D"/>
<path d="M24 252H136V316C136 329.807 124.807 341 111 341H49C35.1929 341 24 329.807 24 316V252Z" fill="#FC993D"/>
<path d="M16 252H145V273H16V252Z" fill="#FCB36D"/>
<path fill-rule="evenodd" clip-rule="evenodd" d="M104.019 180.631C105.296 179.049 106 177.316 106 175.5C106 168.044 94.1355 162 79.5 162C64.8645 162 53 168.044 53 175.5C53 177.316 53.7042 179.049 54.9811 180.631C55.2824 181.067 55.6535 181.475 56.0979 181.84C57.8036 183.47 60.147 184.902 62.9585 186.048L76.4068 194.139C78.31 195.284 80.69 195.284 82.5932 194.139L96.0416 186.048C98.853 184.902 101.196 183.47 102.902 181.84C103.347 181.475 103.718 181.067 104.019 180.631Z" fill="#FC993D"/>
</svg>
