<svg width="209" height="440" viewBox="0 0 209 440" fill="none" xmlns="http://www.w3.org/2000/svg">
<path d="M79.8616 259.276C85.4922 259.276 90.0567 254.712 90.0567 249.081C90.0567 243.45 85.4922 238.886 79.8616 238.886C74.231 238.886 69.6665 243.45 69.6665 249.081C69.6665 254.712 74.231 259.276 79.8616 259.276Z" fill="#38CE95"/>
<path d="M141.883 318.341C150.798 318.341 158.025 311.114 158.025 302.199C158.025 293.284 150.798 286.057 141.883 286.057C132.967 286.057 125.74 293.284 125.74 302.199C125.74 311.114 132.967 318.341 141.883 318.341Z" fill="#38CE95"/>
<line x1="104.5" y1="104.651" x2="104.5" y2="390.114" stroke="#454545" stroke-width="1.69919"/>
<path opacity="0.53" d="M100.243 124.265L125.064 129.301C132.138 130.74 136.695 137.575 135.256 144.65L124.104 199.448C122.665 206.522 115.831 211.079 108.756 209.64L83.9351 204.604C76.8605 203.165 72.304 196.33 73.7429 189.256L84.8944 134.458C86.3333 127.383 93.2879 122.826 100.243 124.265Z" fill="#FC993D"/>
<path opacity="0.53" d="M88.2533 115.872L102.163 136.976C106.12 142.971 104.441 151.125 98.4455 155.082L51.8012 185.898C45.8058 189.855 37.6521 188.176 33.6951 182.181L19.7857 161.077C15.8288 155.082 17.5075 146.928 23.5029 142.971L70.1472 112.155C76.1426 108.198 84.2964 109.756 88.2533 115.872Z" fill="#FC993D"/>
<path opacity="0.53" d="M85.7347 101.243L80.6986 126.064C79.2597 133.138 72.4249 137.695 65.3503 136.256L10.5523 125.105C3.47769 123.666 -1.07882 116.831 0.360075 109.756L5.27631 84.9353C6.71521 77.8607 13.55 73.3042 20.6246 74.7431L75.5425 85.8946C82.6171 87.3335 87.1736 94.2882 85.7347 101.243Z" fill="#FC993D"/>
<path opacity="0.53" d="M94.1281 89.2521L73.0242 103.161C67.0288 107.118 58.875 105.44 54.9181 99.4443L24.1017 52.8C20.1447 46.8046 21.8234 38.6508 27.8188 34.6939L48.9227 20.7845C54.9181 16.8276 63.0718 18.5063 67.0288 24.5017L97.8452 71.146C101.802 77.1414 100.123 85.2951 94.1281 89.2521Z" fill="#FC993D"/>
<path opacity="0.53" d="M108.636 86.734L83.9351 81.578C76.8605 80.1391 72.304 73.3043 73.7429 66.2297L84.8944 11.4317C86.3333 4.35708 93.2879 -0.199429 100.243 1.23947L125.064 6.27561C132.138 7.71451 136.695 14.5493 135.256 21.6239L124.104 76.5418C122.665 83.6164 115.711 88.1729 108.636 86.734Z" fill="#FC993D"/>
<path opacity="0.53" d="M120.749 95.1276L106.84 74.0237C102.883 68.0283 104.562 59.8745 110.557 55.9176L157.081 25.1012C163.077 21.1442 171.231 22.8229 175.188 28.8183L189.097 49.9222C193.054 55.9176 191.375 64.0713 185.38 68.0283L138.736 98.8447C132.86 102.802 124.706 101.123 120.749 95.1276Z" fill="#FC993D"/>
<path opacity="0.53" d="M123.266 109.637L128.302 84.9356C129.741 77.861 136.576 73.3045 143.65 74.7434L198.448 85.8948C205.523 87.3337 210.079 94.1685 208.64 101.243L203.604 126.064C202.165 133.139 195.331 137.695 188.256 136.256L133.458 125.105C126.383 123.666 121.827 116.711 123.266 109.637Z" fill="#FC993D"/>
<path opacity="0.53" d="M114.874 121.747L135.978 107.838C141.973 103.881 150.127 105.559 154.084 111.555L184.9 158.199C188.857 164.195 187.179 172.348 181.183 176.305L160.079 190.215C154.084 194.172 145.93 192.493 141.973 186.498L111.157 139.853C107.2 133.858 108.759 125.704 114.874 121.747Z" fill="#FC993D"/>
<line x1="105.35" y1="249.931" x2="81.561" y2="249.931" stroke="black" stroke-width="1.69919"/>
<line x1="105.35" y1="302.199" x2="142.732" y2="302.199" stroke="black" stroke-width="1.69919"/>
<path d="M103.651 143.732C124.296 143.732 141.033 126.995 141.033 106.349C141.033 85.7038 124.296 68.9673 103.651 68.9673C83.0051 68.9673 66.2686 85.7038 66.2686 106.349C66.2686 126.995 83.0051 143.732 103.651 143.732Z" fill="#FC993D"/>
<path d="M103.361 128.343C115.811 128.343 125.903 118.25 125.903 105.8C125.903 93.3498 115.811 83.2571 103.361 83.2571C90.9106 83.2571 80.8179 93.3498 80.8179 105.8C80.8179 118.25 90.9106 128.343 103.361 128.343Z" fill="#F0EFFA"/>
<path d="M48 372H160V415C160 428.807 148.807 440 135 440H73C59.1929 440 48 428.807 48 415V372Z" fill="#FC993D"/>
<path d="M40 351H169V372H40V351Z" fill="#FCB36D"/>
</svg>
