<?xml version="1.0" encoding="utf-8"?>
<svg version="1.1" x="0px" y="0px" viewBox="0 0 1000 1000" enable-background="new 0 0 1000 1000" xmlns="http://www.w3.org/2000/svg">
  <g>
    <g transform="translate(0.000000,511.000000) scale(0.100000,-0.100000)">
      <path d="M3797.4,4304c-530.3-95.7-924.6-463.3-1056.7-983.9c-91.9-365.6-5.7-794.4,222.1-1095c42.1-55.5,516.9-555.1,1054.8-1114.1l982-1014.6l273.8,281.4c930.4,947.6,1719,1782.2,1797.5,1897.1c415.4,614.5,227.8,1483.6-398.2,1853c-292.9,174.2-675.8,237.4-1003.1,168.5c-166.5-34.5-453.7-170.4-568.6-268c-42.1-38.3-88.1-68.9-97.6-68.9s-61.3,34.5-111,76.6c-112.9,91.9-321.6,197.2-476.7,239.3C4276,4311.6,3935.2,4326.9,3797.4,4304z" style="fill: rgb(255, 0, 0);"/>
      <path d="M1218.8,111.6C351.6-26.2-146.1-945.1,223.4-1735.7c34.5-72.7,91.9-176.1,130.2-225.9c36.4-51.7,513-555.1,1056.7-1118l991.6-1024.2l70.8,74.7c650.9,673.8,1728.6,1795.6,1841.6,1916.2c402,430.7,492,1016.5,235.5,1525.7c-157,312-423.1,534.1-784.9,654.7c-130.2,42.1-187.6,49.8-392.4,51.7c-354.1,1.9-581.9-70.8-846.1-271.8L2398-250.2l-91.9,76.6C2193.2-79.8,1946.2,44.6,1795,82.9C1647.6,119.3,1364.3,132.7,1218.8,111.6z" style="fill: rgb(255, 0, 0);"/>
      <path d="M6387.4,104c-291-55.5-524.5-183.8-729.3-402c-386.7-407.8-463.3-995.4-197.2-1506.6c63.2-118.7,135.9-212.5,340.7-428.8c480.5-511.1,1791.8-1862.6,1803.3-1860.7c7.7,1.9,453.7,461.4,991.6,1018.4C9595.8-2042,9722.2-1894.6,9804.5-1674.4c141.7,375.2,126.3,719.8-49.8,1077.8c-74.7,149.3-118.7,210.6-245,335C9339.3-91.3,9184.2,0.6,8943,75.3c-206.7,65.1-560.9,65.1-765.7,0c-189.5-59.4-338.8-135.9-469-241.2l-107.2-88l-88.1,78.5c-107.2,93.8-354.1,218.2-513,258.4C6835.4,125,6546.3,134.6,6387.4,104z" style="fill: rgb(255, 0, 0);"/>
    </g>
  </g>
</svg>