<svg width="272" height="294" viewBox="0 0 272 294" fill="none" xmlns="http://www.w3.org/2000/svg">
<path d="M172.5 20.5H214C217.314 20.5 220 23.1863 220 26.5V30.5C220 32.7091 218.209 34.5 216 34.5H206.5" stroke="#0B567C" stroke-width="2"/>
<path d="M61.5 108.5H78.5C87.3366 108.5 94.5 115.663 94.5 124.5V157.5" stroke="#0B567C" stroke-width="2"/>
<g style="mix-blend-mode:multiply">
<rect x="108" y="64" width="164" height="111" rx="25" fill="#A3A2D9"/>
<rect x="108" y="64" width="164" height="111" rx="25" fill="#0C4D53"/>
</g>
<g style="mix-blend-mode:multiply">
<rect x="69" y="136" width="79" height="53" rx="15" fill="#0C4D53"/>
</g>
<path d="M62 217V28.5C62 13.5883 74.0883 1.5 89 1.5H145.5C160.412 1.5 172.5 13.5883 172.5 28.5V82" stroke="#A3A2D9" stroke-width="2"/>
<path d="M8 226H120V269C120 282.807 108.807 294 95 294H33C19.1929 294 8 282.807 8 269V226Z" fill="#6967BA"/>
<path d="M0 205H129V226H0V205Z" fill="#A3A2D9"/>
</svg>
