<svg width="244" height="369" viewBox="0 0 244 369" fill="none" xmlns="http://www.w3.org/2000/svg">
<path d="M67 268H179V332C179 345.807 167.807 357 154 357H92C78.1929 357 67 345.807 67 332V268Z" fill="#FB9FB0"/>
<path d="M59 268H188V289H59V268Z" fill="#FB7F96"/>
<path d="M124 215H165.5C168.814 215 171.5 217.686 171.5 221V225C171.5 227.209 169.709 229 167.5 229H158" stroke="#0B567C" stroke-width="1.5"/>
<path d="M124 187H101C97.6863 187 95 189.686 95 193V197C95 199.209 96.7909 201 99 201H103.242" stroke="#0B567C" stroke-width="1.5"/>
<line x1="124.627" y1="129" x2="124.627" y2="269" stroke="#0B567C" stroke-width="1.21531"/>
<line x1="140.277" y1="97.0139" x2="129.394" y2="110.149" stroke="#454545" stroke-width="1.21531"/>
<g style="mix-blend-mode:multiply">
<path fill-rule="evenodd" clip-rule="evenodd" d="M121.091 125.902C125.463 129.639 132.109 125.831 131.096 120.169L117.609 44.7758C117.441 43.8355 117.074 42.9969 116.564 42.286C116.056 41.0935 115.155 40.039 113.863 39.3356L70.6657 15.8018C66.6596 13.6194 61.7595 16.4268 61.6163 20.9866L60.0721 70.1547C60.026 71.6227 60.4789 72.9318 61.249 73.973C61.6045 74.7736 62.1431 75.5158 62.8704 76.1375L121.091 125.902Z" fill="#0C4D53" fill-opacity="0.75"/>
</g>
<g style="mix-blend-mode:multiply">
<path fill-rule="evenodd" clip-rule="evenodd" d="M117.252 115.353C112.037 117.731 112.682 125.336 118.222 126.802L191.993 146.325C192.914 146.569 193.827 146.59 194.684 146.428C195.974 146.47 197.304 146.099 198.482 145.229L237.905 116.108C241.561 113.407 241.086 107.8 237.028 105.754L193.266 83.6817C191.959 83.0224 190.585 82.8811 189.32 83.1393C188.448 83.1241 187.552 83.2985 186.685 83.6937L117.252 115.353Z" fill="#0C4D53" fill-opacity="0.75"/>
</g>
<g style="mix-blend-mode:multiply">
<path fill-rule="evenodd" clip-rule="evenodd" d="M125.793 115.353C131.008 117.731 130.363 125.336 124.823 126.802L51.0515 146.325C50.1308 146.569 49.2183 146.59 48.3614 146.428C47.0711 146.47 45.7405 146.1 44.5628 145.229L5.13958 116.108C1.48359 113.407 1.95875 107.801 6.01708 105.754L49.7788 83.6818C51.0861 83.0225 52.4598 82.8812 53.7245 83.1394C54.5966 83.1242 55.4927 83.2986 56.3594 83.6938L125.793 115.353Z" fill="#0C4D53" fill-opacity="0.75"/>
</g>
<g style="mix-blend-mode:multiply">
<path fill-rule="evenodd" clip-rule="evenodd" d="M152.107 319.79C148.985 319.428 147.132 323.18 149.317 325.439L178.404 355.514C178.767 355.889 179.19 356.158 179.638 356.325C180.232 356.71 180.961 356.914 181.76 356.839L208.518 354.348C210.999 354.117 212.366 351.351 211.041 349.24L196.76 326.475C196.333 325.795 195.728 325.339 195.061 325.102C194.657 324.848 194.187 324.676 193.668 324.615L152.107 319.79Z" fill="#0C4D53" fill-opacity="0.75"/>
</g>
<g style="mix-blend-mode:multiply">
<path fill-rule="evenodd" clip-rule="evenodd" d="M121.748 117.695C126.885 117.098 129.935 123.272 126.34 126.989L78.4715 176.483C77.8739 177.101 77.1788 177.543 76.4413 177.818C75.4643 178.452 74.264 178.787 72.9487 178.664L28.9153 174.564C24.8317 174.184 22.5831 169.632 24.7626 166.158L48.2644 128.695C48.9665 127.576 49.9618 126.826 51.0594 126.436C51.7257 126.017 52.499 125.734 53.3526 125.635L121.748 117.695Z" fill="#0C4D53" fill-opacity="0.75"/>
</g>
</svg>
