<svg width="254" height="388" viewBox="0 0 254 388" fill="none" xmlns="http://www.w3.org/2000/svg">
<g style="mix-blend-mode:multiply">
<path fill-rule="evenodd" clip-rule="evenodd" d="M122.934 263.877C124.311 267.731 129.761 267.731 131.138 263.877L149.478 212.563C149.707 211.924 149.777 211.277 149.714 210.659C149.823 209.742 149.64 208.772 149.091 207.88L130.747 178.073C129.046 175.309 125.028 175.309 123.327 178.073L104.983 207.88C104.435 208.769 104.252 209.737 104.358 210.651C104.294 211.272 104.364 211.921 104.594 212.563L122.934 263.877Z" fill="#F4A3B2"/>
</g>
<g style="mix-blend-mode:multiply">
<path fill-rule="evenodd" clip-rule="evenodd" d="M122.653 264.757C125.147 268.002 130.333 266.328 130.461 262.238L131.901 216.064C131.932 215.055 131.625 214.138 131.096 213.399C130.918 212.491 130.446 211.622 129.648 210.94L107.356 191.894C104.888 189.786 101.064 191.02 100.294 194.173L93.3359 222.656C93.0879 223.671 93.2108 224.649 93.594 225.488C93.5941 226.4 93.8812 227.328 94.4988 228.131L122.653 264.757Z" fill="#F4A3B2"/>
</g>
<g style="mix-blend-mode:multiply">
<path fill-rule="evenodd" clip-rule="evenodd" d="M131.738 264.757C129.244 268.002 124.057 266.328 123.93 262.238L122.49 216.064C122.459 215.055 122.765 214.138 123.295 213.399C123.472 212.491 123.945 211.622 124.742 210.94L147.035 191.894C149.503 189.786 153.327 191.02 154.097 194.173L161.055 222.656C161.303 223.671 161.18 224.649 160.797 225.488C160.797 226.4 160.509 227.328 159.892 228.131L131.738 264.757Z" fill="#F4A3B2"/>
</g>
<line x1="127.608" y1="266" x2="127.608" y2="317" stroke="#454545" stroke-width="1.21531"/>
<path d="M71 299H183V363C183 376.807 171.807 388 158 388H96C82.1929 388 71 376.807 71 363V299Z" fill="#FB9FB0"/>
<path d="M63 299H192V320H63V299Z" fill="#FB7F96"/>
</svg>
