<svg width="254" height="388" viewBox="0 0 254 388" fill="none" xmlns="http://www.w3.org/2000/svg">
<line x1="99.7093" y1="64.5697" x2="100.646" y2="77.6818" stroke="#454545" stroke-width="0.936586"/>
<line y1="-0.468293" x2="13.1456" y2="-0.468293" transform="matrix(-0.277605 0.960695 -0.960696 -0.277602 156.277 65.5396)" stroke="#454545" stroke-width="0.936586"/>
<g style="mix-blend-mode:multiply">
<path fill-rule="evenodd" clip-rule="evenodd" d="M120.699 173.247C122.772 179.047 130.974 179.047 133.046 173.247L160.646 96.0247C160.991 95.0619 161.096 94.0878 161.001 93.1564C161.164 91.7776 160.888 90.3181 160.063 88.977L132.457 44.1201C129.897 39.9602 123.85 39.9602 121.29 44.1201L93.6842 88.977C92.8602 90.316 92.5841 91.773 92.7451 93.1498C92.649 94.0832 92.7543 95.0596 93.0992 96.0247L120.699 173.247Z" fill="#F4A3B2"/>
</g>
<g style="mix-blend-mode:multiply">
<path fill-rule="evenodd" clip-rule="evenodd" d="M119.369 175.891C124.064 179.877 131.167 175.776 130.062 169.717L115.353 89.0404C115.17 88.0368 114.776 87.1422 114.23 86.3841C113.682 85.1067 112.713 83.9788 111.326 83.2292L64.9896 58.1848C60.6926 55.8623 55.4559 58.8856 55.3187 63.7683L53.8399 116.418C53.7959 117.988 54.2837 119.386 55.1093 120.497C55.4928 121.355 56.0729 122.149 56.8555 122.814L119.369 175.891Z" fill="#F4A3B2"/>
</g>
<g style="mix-blend-mode:multiply">
<path fill-rule="evenodd" clip-rule="evenodd" d="M123.792 169.717C122.687 175.775 129.79 179.876 134.485 175.89L196.998 122.814C197.778 122.151 198.357 121.36 198.741 120.505C199.57 119.393 200.06 117.991 200.016 116.418L198.537 63.7682C198.4 58.8856 193.164 55.8622 188.867 58.1848L142.531 83.2291C141.147 83.9771 140.179 85.1016 139.63 86.3753C139.081 87.1352 138.684 88.0328 138.501 89.0402L123.792 169.717Z" fill="#F4A3B2"/>
</g>
<line x1="127.608" y1="177" x2="127.608" y2="317" stroke="#454545" stroke-width="1.21531"/>
<line x1="170.721" y1="253.795" x2="126.969" y2="286.15" stroke="#454545" stroke-width="1.21531"/>
<path d="M71 299H183V363C183 376.807 171.807 388 158 388H96C82.1929 388 71 376.807 71 363V299Z" fill="#FB9FB0"/>
<path d="M63 299H192V320H63V299Z" fill="#FB7F96"/>
</svg>
