<svg width="341" height="405" viewBox="0 0 341 405" fill="none" xmlns="http://www.w3.org/2000/svg">
<circle cx="212" cy="253" r="14" fill="#5CD09F" fill-opacity="0.75"/>
<circle cx="119.5" cy="218.5" r="20.5" fill="#5CD09F" fill-opacity="0.75"/>
<line x1="169.608" y1="176" x2="169.608" y2="316" stroke="#454545" stroke-width="1.21531"/>
<line x1="132.755" y1="30.5837" x2="133.97" y2="47.598" stroke="#454545" stroke-width="1.21531"/>
<line x1="206.74" y1="32.0109" x2="202.005" y2="48.3981" stroke="#454545" stroke-width="1.21531"/>
<line x1="212.721" y1="252.795" x2="168.969" y2="285.15" stroke="#454545" stroke-width="1.21531"/>
<line x1="168.926" y1="244.777" x2="120.718" y2="219.538" stroke="#454545" stroke-width="1.21531"/>
<g style="mix-blend-mode:multiply">
<path fill-rule="evenodd" clip-rule="evenodd" d="M159.991 171.604C162.68 179.129 173.323 179.129 176.012 171.604L211.826 71.3997C212.273 70.1496 212.41 68.8847 212.286 67.6754C212.497 65.8871 212.139 63.9942 211.068 62.2548L175.247 4.04844C171.925 -1.34945 164.079 -1.34946 160.757 4.04843L124.936 62.2548C123.866 63.9931 123.508 65.8847 123.717 67.672C123.593 68.8824 123.73 70.1484 124.177 71.3997L159.991 171.604Z" fill="#F4A3B2"/>
</g>
<g style="mix-blend-mode:multiply">
<path fill-rule="evenodd" clip-rule="evenodd" d="M158.265 175.034C164.357 180.206 173.574 174.885 172.141 167.023L153.054 62.337C152.816 61.0315 152.303 59.8681 151.592 58.8829C150.88 57.2285 149.623 55.7677 147.826 54.7964L87.7007 22.2988C82.1249 19.2851 75.3298 23.2082 75.1519 29.5439L73.2329 97.8627C73.1757 99.9024 73.8109 101.719 74.8855 103.162C75.3832 104.273 76.1348 105.301 77.148 106.161L158.265 175.034Z" fill="#F4A3B2"/>
</g>
<g style="mix-blend-mode:multiply">
<path fill-rule="evenodd" clip-rule="evenodd" d="M164.003 167.023C162.569 174.885 171.786 180.206 177.878 175.034L258.995 106.162C260.008 105.302 260.759 104.274 261.257 103.165C262.333 101.721 262.969 99.9036 262.911 97.8627L260.992 29.5439C260.814 23.2082 254.019 19.285 248.444 22.2988L188.318 54.7963C186.522 55.7672 185.266 57.2269 184.554 58.8803C183.842 59.8661 183.327 61.0305 183.089 62.3371L164.003 167.023Z" fill="#F4A3B2"/>
</g>
<g style="mix-blend-mode:multiply">
<path fill-rule="evenodd" clip-rule="evenodd" d="M167.122 162.121C162.184 168.405 167.85 177.413 175.652 175.683L279.54 152.646C280.837 152.358 281.981 151.8 282.939 151.051C284.564 150.277 285.975 148.967 286.877 147.135L317.075 85.8222C319.875 80.1362 315.697 73.4945 309.36 73.5567L241.017 74.2265C238.975 74.2465 237.183 74.9509 235.781 76.0807C234.691 76.62 233.693 77.4096 232.872 78.4539L167.122 162.121Z" fill="#F4A3B2"/>
</g>
<g style="mix-blend-mode:multiply">
<path fill-rule="evenodd" clip-rule="evenodd" d="M173.131 162.121C178.069 168.405 172.403 177.413 164.601 175.683L60.7128 152.646C59.416 152.358 58.272 151.8 57.3138 151.051C55.6887 150.277 54.2776 148.967 53.3755 147.135L23.1783 85.8222C20.3779 80.1362 24.5555 73.4945 30.8934 73.5567L99.2359 74.2265C101.278 74.2465 103.07 74.9509 104.472 76.0807C105.562 76.62 106.56 77.4096 107.381 78.4539L173.131 162.121Z" fill="#F4A3B2"/>
</g>
<circle cx="206.282" cy="31.8421" r="3.64593" fill="#FF7A00" fill-opacity="0.75"/>
<circle cx="132.148" cy="30.6268" r="3.64593" fill="#FF7A00" fill-opacity="0.75"/>
<path d="M112 337H224V380C224 393.807 212.807 405 199 405H137C123.193 405 112 393.807 112 380V337Z" fill="#FB7F96" fill-opacity="0.75"/>
<path d="M104 316H233V337H104V316Z" fill="#FB7F96"/>
</svg>
