<svg width="254" height="388" viewBox="0 0 254 388" fill="none" xmlns="http://www.w3.org/2000/svg">
<g clip-path="url(#clip0_0_1)">
<line x1="91.7545" y1="30.584" x2="92.9699" y2="47.5984" stroke="#454545" stroke-width="1.21531"/>
<line x1="165.74" y1="32.0112" x2="161.005" y2="48.3985" stroke="#454545" stroke-width="1.21531"/>
<g style="mix-blend-mode:multiply">
<path fill-rule="evenodd" clip-rule="evenodd" d="M118.991 171.604C121.68 179.129 132.323 179.129 135.012 171.604L170.826 71.3997C171.273 70.1496 171.41 68.8847 171.286 67.6754C171.497 65.8871 171.139 63.9942 170.068 62.2548L134.247 4.04844C130.925 -1.34945 123.079 -1.34946 119.757 4.04843L83.9356 62.2548C82.8658 63.9931 82.5077 65.8847 82.7173 67.672C82.5931 68.8824 82.7299 70.1484 83.1771 71.3997L118.991 171.604Z" fill="#F4A3B2"/>
</g>
<g style="mix-blend-mode:multiply">
<path fill-rule="evenodd" clip-rule="evenodd" d="M117.265 175.034C123.357 180.206 132.574 174.885 131.141 167.023L112.054 62.337C111.816 61.0315 111.303 59.8681 110.592 58.8829C109.88 57.2285 108.623 55.7677 106.826 54.7964L46.7007 22.2988C41.1249 19.2851 34.3298 23.2082 34.1519 29.5439L32.2329 97.8627C32.1757 99.9024 32.8109 101.719 33.8855 103.162C34.3832 104.273 35.1348 105.301 36.148 106.161L117.265 175.034Z" fill="#F4A3B2"/>
</g>
<g style="mix-blend-mode:multiply">
<path fill-rule="evenodd" clip-rule="evenodd" d="M123.003 167.023C121.569 174.885 130.786 180.206 136.878 175.034L217.995 106.162C219.008 105.302 219.759 104.274 220.257 103.165C221.333 101.721 221.969 99.9036 221.911 97.8627L219.992 29.5439C219.814 23.2082 213.019 19.285 207.444 22.2988L147.318 54.7963C145.522 55.7672 144.266 57.2269 143.554 58.8803C142.842 59.8661 142.327 61.0305 142.089 62.3371L123.003 167.023Z" fill="#F4A3B2"/>
</g>
<circle cx="165.282" cy="31.8425" r="3.64593" fill="#FF7A00"/>
<circle cx="91.1479" cy="30.6271" r="3.64593" fill="#FF7A00"/>
<circle cx="170" cy="254" r="14" fill="#5CD09F" fill-opacity="0.75"/>
<line x1="127.608" y1="177" x2="127.608" y2="317" stroke="#454545" stroke-width="1.21531"/>
<line x1="170.721" y1="253.795" x2="126.969" y2="286.15" stroke="#454545" stroke-width="1.21531"/>
</g>
<path d="M71 299H183V363C183 376.807 171.807 388 158 388H96C82.1929 388 71 376.807 71 363V299Z" fill="#FB9FB0"/>
<path d="M63 299H192V320H63V299Z" fill="#FB7F96"/>
<defs>
<clipPath id="clip0_0_1">
<rect width="254" height="380.392" fill="white"/>
</clipPath>
</defs>
</svg>
